<?xml version="1.0" encoding="UTF-8"?>
<svg width="400px" height="400px" viewBox="0 0 400 400" version="1.1" xmlns="http://www.w3.org/2000/svg" xmlns:xlink="http://www.w3.org/1999/xlink">
    <!-- Generator: Sketch 46.2 (44496) - http://www.bohemiancoding.com/sketch -->
    <title>logo-slash</title>
    <desc>Created with Sketch.</desc>
    <defs></defs>
    <g id="Page-1" stroke="none" stroke-width="1" fill="none" fill-rule="evenodd">
        <g id="logo-slash" fill="#FFFFFF">
            <path d="M51.6790082,175.697729 C48.2015533,175.560775 44.5854802,175.126445 40.8306807,174.394724 C30.1949446,172.216737 22.4312479,168.544443 17.5393576,163.377731 C17.4543908,163.417351 16.9745416,162.942884 16.0997956,161.954315 C15.2250496,160.965747 14.4478211,160.62995 13.7680869,160.946915 C11.4286377,162.14126 11.4107752,165.097648 13.714499,169.816167 C15.695532,174.064506 20.8510622,178.022043 29.1812443,181.688895 C47.4101737,189.946242 76.6592674,191.668101 116.929403,186.854525 C135.102097,184.787751 159.893554,180.234228 191.304311,173.193851 C193.422579,172.868952 195.585806,172.537678 197.79399,172.200029 C239.860363,165.767755 271.562732,159.590416 292.902046,153.667828 C332.043063,143.045439 358.51733,130.492056 372.325643,116.0073 C378.675626,109.486912 381.973231,103.886253 382.218557,99.2051536 C382.586944,93.9672288 381.4629,91.2328052 378.846391,91.0018006 C378.097415,90.9625485 377.502573,91.5650487 377.061847,92.8093194 C376.621121,94.0535902 376.353951,94.673263 376.260329,94.6683565 C373.660132,101.291383 367.837423,107.604607 358.792029,113.608218 C355.584747,115.69323 352.394685,117.450539 349.221749,118.880198 C328.193536,127.823223 304.467615,135.404305 278.043275,141.623674 C251.618934,147.843042 210.29009,155.440372 154.055501,164.415891 C152.350679,164.702061 147.087626,165.778179 138.266341,167.644245 L109.026974,172.487987 C88.6893351,174.952487 69.5734659,176.022392 51.6790082,175.697729 Z" id="Combined-Shape"></path>
        </g>
    </g>
</svg>