<?xml version="1.0" encoding="UTF-8"?>
<svg width="400px" height="400px" viewBox="0 0 400 400" version="1.1" xmlns="http://www.w3.org/2000/svg" xmlns:xlink="http://www.w3.org/1999/xlink">
    <!-- Generator: Sketch 46.2 (44496) - http://www.bohemiancoding.com/sketch -->
    <title>logo-initials</title>
    <desc>Created with Sketch.</desc>
    <defs>
        <path d="M101.199738,40.0802743 C115.199738,51.0802743 108.199738,82.0802743 97.3164083,115.361956 C85.6422199,151.062117 64.4616195,185.357094 34.3535982,218.871497 L22.9807346,230.903657 C18.6952863,234.749572 15.7834228,236.782383 14.2450568,237.002149 C9.52007534,236.892266 4.95998723,232.332178 0.564655652,223.321748 C1.67729744,220.154999 34.7812783,119.201887 48.1768785,66.590284 C56.1997379,35.0802743 87.1997379,29.0802743 101.199738,40.0802743 Z M69.1997379,56.0802743 C64.3648732,59.1570064 52.7314939,110.389738 51.2480695,115.279544 C49.7646451,120.16935 45.5342019,132.943091 38.556613,153.60115 C31.5790242,174.259208 26.3871166,191.345803 22.9807346,204.861448 C31.4417479,195.960901 45.1997379,183.080274 53.1997379,171.080274 C80.1997379,138.080274 101.199738,75.0802743 94.1997379,58.0802743 C87.1997379,41.0802743 74.0346027,53.0035422 69.1997379,56.0802743 Z" id="path-1"></path>
    </defs>
    <g id="Page-1" stroke="none" stroke-width="1" fill="none" fill-rule="evenodd">
        <g id="logo-initials">
            <g id="Group" transform="translate(58.000000, 68.000000)">
                <path d="M128.250636,200.059634 C128.325309,205.487239 136.973288,211.852732 151.26087,208.776589 C182.395468,202.073251 208.017313,196.113413 221.588052,185.590473 C227.804413,180.873874 231.416297,176.495175 232.423814,172.454246 C233.626379,167.946892 233.199691,165.394029 231.143735,164.795579 C230.550561,164.647684 229.969675,165.082282 229.401059,166.099385 C228.832443,167.116489 228.511067,167.61579 228.43692,167.597303 C225.206576,172.972557 219.448485,177.588718 211.162473,181.445924 C208.232025,182.775505 205.372147,183.822204 202.582751,184.586055 C184.528629,189.099998 164.98545,194.968268 142.876453,193.675639 L144.004176,189.127603 C144.588773,186.851888 148.492983,169.260878 155.716924,136.354045 C162.940866,103.447212 167.554932,83.5350081 169.559263,76.6168357 C178.745778,45.7581457 191.397924,28.3264334 207.766623,24.3211757 C209.770953,23.7750042 210.773103,23.1378137 210.773103,22.409585 C210.773103,20.4979847 208.601778,19.542199 204.259062,19.542199 C199.916345,19.542199 194.383641,22.0454475 187.660782,27.0520196 C180.937924,32.0585917 174.9459,39.0221739 169.684533,47.9429751 C160.915587,63.0537201 152.564335,88.1317188 144.630526,123.177724 L140.747155,140.518582 C134.901191,167.280986 130.996981,184.098264 129.034407,190.970922 C127.920551,194.871492 127.557318,197.830369 128.250636,200.059634 Z" id="Combined-Shape" fill="#FFFFFF"></path>
                <path d="M103.048457,218.625 C90.3921437,257.156443 76.4704079,282.937435 61.2828319,295.96875 C54.4390477,301.96878 48.6734804,304.96875 43.9859569,304.96875 C38.7359307,305.0625 36.0640824,303.796888 35.9703319,301.171875 C35.9703319,300.421871 36.6031381,299.859377 37.8687694,299.484375 C39.1344008,299.109373 39.7672069,298.875 39.7672069,298.78125 C46.5172407,296.531239 53.1265496,291.046919 59.5953319,282.328125 C61.8453432,279.23436 63.767199,276.14064 65.3609569,273.046875 C75.3922571,252.515522 84.204669,229.21888 91.7984569,203.15625 C99.3922449,177.09362 109.142147,136.219028 121.048457,80.53125 C121.61096,77.9999873 122.665637,72.7031653 124.212519,64.640625 C125.759402,56.5780847 126.97814,50.7422055 127.868769,47.1328125 C128.759399,43.5234195 135.296873,11.3437659 135.765625,8.15625 C136.234377,4.96873406 137.195305,2.81250562 138.648437,1.6875 C140.10157,0.562494375 143.218726,0 148,0 C150.718764,0.187500937 152.125,1.45311328 152.21875,3.796875 C152.21875,4.82813016 145.212531,38.7890159 142.915644,48.1171875 C140.618758,57.4453591 135.157875,82.9451041 126.532832,124.617187 C117.907789,166.289271 110.079742,197.624895 103.048457,218.625 Z" id="J" fill="#FFFFFF"></path>
                <mask id="mask-2" fill="white">
                    <use xlink:href="#path-1"></use>
                </mask>
                <use id="D" fill="#FFFFFF" xlink:href="#path-1"></use>
            </g>
        </g>
    </g>
</svg>